<svg id="svg" version="1.1" xmlns="http://www.w3.org/2000/svg" xmlns:xlink="http://www.w3.org/1999/xlink" width="400" height="400" viewBox="0, 0, 400,400"><g id="svgg"><path id="path0" d="M166.182 49.591 C 82.708 68.966,87.931 67.548,83.389 72.070 C 79.274 76.168,80.203 73.418,55.605 154.297 L 32.617 229.883 32.617 233.984 C 32.617 238.576,33.577 242.337,35.484 245.218 C 36.714 247.076,140.098 361.198,142.567 363.424 C 145.601 366.158,150.612 367.956,155.222 367.964 C 157.557 367.968,293.889 336.879,307.861 333.156 C 312.893 331.816,317.869 327.864,320.376 323.217 C 320.961 322.133,331.475 288.208,344.399 245.703 L 367.383 170.117 367.383 166.016 C 367.383 161.424,366.423 157.663,364.516 154.782 C 363.286 152.924,259.902 38.802,257.433 36.576 C 255.590 34.915,252.585 33.405,249.477 32.577 C 244.699 31.305,246.904 30.855,166.182 49.591 M248.718 47.185 C 250.670 48.437,352.163 160.313,353.284 162.448 C 354.930 165.581,355.699 162.753,331.697 241.797 C 308.635 317.741,308.717 317.495,306.108 319.108 C 304.117 320.338,158.956 354.023,155.588 354.036 C 151.586 354.051,153.353 355.868,98.545 295.368 C 44.988 236.248,45.978 237.404,45.958 233.984 C 45.942 231.284,90.050 85.506,91.595 83.154 C 93.384 80.429,91.229 80.991,168.417 63.116 C 208.668 53.795,241.953 46.076,242.383 45.963 C 243.998 45.537,247.075 46.131,248.718 47.185 M182.313 74.748 C 154.430 81.225,131.842 86.575,132.117 86.639 C 132.392 86.702,152.502 90.838,176.805 95.831 L 220.992 104.909 226.964 85.560 C 230.249 74.918,233.164 65.464,233.442 64.551 C 234.069 62.488,241.331 61.040,182.313 74.748 M243.235 82.133 C 240.712 90.349,237.801 99.815,236.766 103.169 L 234.883 109.269 274.766 126.576 C 296.701 136.096,315.615 144.308,316.797 144.826 L 318.945 145.767 317.737 144.466 C 316.650 143.295,248.670 68.177,248.071 67.485 C 247.934 67.326,245.758 73.918,243.235 82.133 M105.860 97.161 C 105.861 98.133,115.865 206.633,116.110 208.316 C 116.180 208.803,130.614 195.135,163.547 163.399 C 189.581 138.310,210.847 117.748,210.805 117.706 C 210.762 117.663,187.527 112.872,159.172 107.059 C 130.817 101.246,107.222 96.398,106.738 96.284 C 105.989 96.109,105.859 96.238,105.860 97.161 M78.442 174.934 C 70.130 202.353,63.380 224.838,63.442 224.900 C 63.620 225.079,102.001 218.833,102.249 218.585 C 102.491 218.342,94.277 128.313,93.829 126.310 C 93.605 125.305,90.787 134.210,78.442 174.934 M236.328 126.190 C 236.328 126.662,264.423 255.180,264.552 255.300 C 264.811 255.539,335.119 168.948,334.864 168.704 C 334.639 168.488,244.451 129.215,237.738 126.410 C 236.963 126.086,236.328 125.987,236.328 126.190 M173.137 174.447 C 146.447 200.165,124.611 221.314,124.613 221.444 C 124.618 221.741,250.392 261.066,250.618 260.841 C 250.741 260.717,222.284 129.724,221.760 128.003 C 221.707 127.829,199.826 148.729,173.137 174.447 M194.137 180.412 C 197.422 182.174,198.196 187.311,195.858 191.842 C 194.955 193.593,193.129 195.519,186.804 201.390 C 181.626 206.197,179.055 208.835,179.382 209.007 C 180.293 209.486,191.014 210.991,191.780 210.748 C 192.193 210.616,193.447 209.381,194.566 208.002 C 198.361 203.324,198.314 206.097,194.504 211.621 C 191.199 216.414,191.771 216.283,182.355 214.403 C 175.379 213.011,174.835 213.061,172.687 215.296 L 171.137 216.909 170.877 215.874 C 170.487 214.319,171.121 213.565,181.103 203.711 C 191.786 193.165,193.078 191.086,191.828 186.445 C 189.969 179.540,181.990 181.721,182.540 188.984 C 182.753 191.809,182.739 191.869,181.906 191.645 C 181.438 191.520,180.396 191.415,179.590 191.412 L 178.125 191.406 178.125 189.438 C 178.125 182.935,188.225 177.242,194.137 180.412 M222.662 180.566 C 228.955 184.843,225.589 205.748,217.492 212.678 C 213.755 215.877,207.518 217.086,204.688 215.159 C 198.679 211.067,200.845 192.778,208.267 184.930 C 212.768 180.171,219.208 178.219,222.662 180.566 M214.103 183.093 C 210.922 184.660,208.153 192.188,207.080 202.187 C 205.687 215.171,213.681 217.726,217.688 205.577 C 222.184 191.948,220.286 180.048,214.103 183.093 M299.806 235.411 L 270.582 271.214 284.765 285.314 L 298.949 299.414 299.457 297.852 C 299.737 296.992,306.484 274.756,314.451 248.438 C 322.419 222.119,329.013 200.366,329.105 200.098 C 329.438 199.126,328.600 200.136,299.806 235.411 M86.587 235.970 C 76.309 237.637,67.820 239.081,67.722 239.179 C 67.573 239.328,130.281 308.829,134.219 312.879 L 135.538 314.235 134.801 312.294 C 134.395 311.225,127.699 293.037,119.920 271.875 C 112.141 250.713,105.663 233.295,105.525 233.168 C 105.386 233.042,96.864 234.303,86.587 235.970 M122.982 238.134 C 123.390 239.182,131.604 261.484,141.234 287.695 C 150.864 313.906,158.779 335.407,158.824 335.474 C 158.879 335.558,243.162 275.467,244.417 274.448 C 244.490 274.388,124.549 236.834,122.940 236.413 C 122.273 236.239,122.275 236.323,122.982 238.134 M224.898 306.351 C 205.621 320.119,189.898 331.434,189.958 331.495 C 190.078 331.615,287.570 309.068,287.683 308.895 C 287.721 308.837,281.496 302.608,273.850 295.053 L 259.948 281.317 224.898 306.351 " stroke="none" fill="#dc2c2c" fill-rule="evenodd"></path><path id="path1" d="M205.448 122.949 L 204.102 124.414 205.566 123.068 C 206.930 121.815,207.211 121.484,206.913 121.484 C 206.847 121.484,206.188 122.144,205.448 122.949 M219.311 129.785 L 218.164 131.055 219.434 129.907 C 220.132 129.276,220.703 128.705,220.703 128.638 C 220.703 128.336,220.381 128.602,219.311 129.785 M194.702 133.301 L 193.555 134.570 194.824 133.423 C 195.522 132.792,196.094 132.221,196.094 132.153 C 196.094 131.852,195.771 132.117,194.702 133.301 M208.573 140.137 L 207.227 141.602 208.691 140.255 C 210.055 139.002,210.336 138.672,210.038 138.672 C 209.972 138.672,209.313 139.331,208.573 140.137 M183.963 143.652 L 182.617 145.117 184.082 143.771 C 184.888 143.031,185.547 142.371,185.547 142.306 C 185.547 142.008,185.216 142.289,183.963 143.652 M197.635 150.684 L 196.289 152.148 197.754 150.802 C 198.560 150.062,199.219 149.403,199.219 149.337 C 199.219 149.039,198.888 149.320,197.635 150.684 M173.218 154.004 L 172.070 155.273 173.340 154.126 C 174.038 153.495,174.609 152.924,174.609 152.857 C 174.609 152.555,174.287 152.821,173.218 154.004 M186.889 161.035 L 185.742 162.305 187.012 161.157 C 187.710 160.526,188.281 159.955,188.281 159.888 C 188.281 159.586,187.959 159.852,186.889 161.035 M162.479 164.355 L 161.133 165.820 162.598 164.474 C 163.403 163.734,164.063 163.075,164.063 163.009 C 164.063 162.711,163.732 162.992,162.479 164.355 M176.151 171.387 L 174.805 172.852 176.270 171.505 C 177.075 170.765,177.734 170.106,177.734 170.041 C 177.734 169.742,177.404 170.023,176.151 171.387 M151.541 174.902 L 150.195 176.367 151.660 175.021 C 152.466 174.281,153.125 173.621,153.125 173.556 C 153.125 173.258,152.794 173.539,151.541 174.902 M165.405 181.738 L 164.258 183.008 165.527 181.861 C 166.226 181.229,166.797 180.658,166.797 180.591 C 166.797 180.289,166.475 180.555,165.405 181.738 M140.796 185.254 L 139.648 186.523 140.918 185.376 C 142.101 184.307,142.367 183.984,142.065 183.984 C 141.998 183.984,141.427 184.556,140.796 185.254 M154.666 192.090 L 153.320 193.555 154.785 192.209 C 155.591 191.468,156.250 190.809,156.250 190.744 C 156.250 190.445,155.919 190.726,154.666 192.090 M130.057 195.605 L 128.711 197.070 130.176 195.724 C 130.981 194.984,131.641 194.325,131.641 194.259 C 131.641 193.961,131.310 194.242,130.057 195.605 M143.921 202.441 L 142.773 203.711 144.043 202.564 C 145.226 201.494,145.492 201.172,145.190 201.172 C 145.123 201.172,144.552 201.743,143.921 202.441 M119.311 205.957 L 118.164 207.227 119.434 206.079 C 120.617 205.010,120.883 204.688,120.581 204.688 C 120.514 204.688,119.942 205.259,119.311 205.957 M133.182 212.793 L 131.836 214.258 133.301 212.912 C 134.664 211.659,134.945 211.328,134.647 211.328 C 134.582 211.328,133.922 211.987,133.182 212.793 M273.242 274.219 C 274.735 275.723,276.044 276.953,276.151 276.953 C 276.258 276.953,275.125 275.723,273.633 274.219 C 272.140 272.715,270.831 271.484,270.724 271.484 C 270.617 271.484,271.750 272.715,273.242 274.219 M280.664 301.953 C 282.589 303.887,284.251 305.469,284.359 305.469 C 284.466 305.469,282.979 303.887,281.055 301.953 C 279.130 300.020,277.467 298.438,277.360 298.438 C 277.253 298.438,278.739 300.020,280.664 301.953 " stroke="none" fill="#d43c34" fill-rule="evenodd"></path></g></svg>