<svg id="svg" version="1.1" xmlns="http://www.w3.org/2000/svg" xmlns:xlink="http://www.w3.org/1999/xlink" width="400" height="400" viewBox="0, 0, 400,400"><g id="svgg"><path id="path0" d="M190.600 34.233 C 166.858 36.007,148.901 40.468,129.657 49.373 C 121.064 53.350,119.326 54.422,120.455 55.047 C 121.919 55.859,122.561 55.728,126.308 53.849 C 210.220 11.785,312.463 49.202,349.694 135.600 C 367.186 176.192,367.118 224.545,349.513 264.593 C 347.936 268.181,347.847 270.564,349.256 271.435 C 350.009 271.900,355.288 259.185,357.976 250.430 C 389.018 149.328,322.116 46.952,217.191 34.998 C 212.050 34.412,194.831 33.917,190.600 34.233 M188.000 63.856 C 178.849 64.690,159.600 68.563,159.600 69.569 C 159.600 69.715,160.592 70.172,161.805 70.584 L 164.010 71.333 168.705 70.258 C 224.517 57.478,280.212 79.722,311.306 127.212 C 322.481 144.279,328.831 161.825,332.003 184.400 C 333.287 193.536,332.916 209.050,331.136 220.661 C 330.269 226.314,330.269 226.324,331.053 228.234 C 332.311 231.299,332.584 230.882,333.748 224.110 C 347.094 146.481,296.146 76.609,217.400 64.544 C 213.533 63.952,192.377 63.456,188.000 63.856 M191.000 88.813 C 106.694 95.708,60.481 190.398,106.964 261.000 C 153.096 331.068,258.382 326.102,297.789 252.000 C 338.858 174.775,277.951 81.703,191.000 88.813 M212.177 93.405 C 247.887 97.582,278.757 119.096,296.102 151.894 L 298.055 155.588 293.928 158.262 C 291.657 159.733,287.496 162.435,284.679 164.268 C 278.478 168.303,279.463 168.443,276.608 163.123 C 251.600 116.521,196.440 101.611,153.800 129.928 C 98.007 166.979,103.471 246.545,163.832 276.036 C 202.476 294.915,251.083 280.372,273.737 243.151 L 275.274 240.625 283.237 248.669 C 287.617 253.092,291.200 256.986,291.200 257.321 C 291.200 258.871,282.657 269.644,276.565 275.778 C 224.587 328.109,135.387 313.115,102.987 246.600 C 70.106 179.096,114.880 100.452,190.400 93.065 C 194.546 92.659,207.537 92.862,212.177 93.405 M51.126 125.106 C 11.735 203.374,38.981 297.794,114.000 342.992 C 157.992 369.497,212.761 373.869,261.200 354.742 C 269.982 351.275,287.200 342.310,287.200 341.205 C 287.200 339.783,283.865 339.854,281.245 341.331 C 201.539 386.268,102.885 359.482,57.574 280.600 C 30.155 232.867,29.294 170.700,55.392 123.000 C 56.618 120.759,56.669 120.516,56.164 119.331 C 55.234 117.148,54.991 117.426,51.126 125.106 M207.600 119.624 C 234.898 122.124,260.306 139.999,273.614 166.067 L 275.997 170.734 274.099 172.111 C 270.761 174.533,253.930 185.664,253.809 185.529 C 253.745 185.458,252.963 183.942,252.072 182.159 C 236.648 151.326,205.066 138.383,177.959 151.785 C 137.267 171.904,136.943 227.466,177.400 247.607 C 203.336 260.518,233.541 249.705,250.434 221.461 C 252.222 218.472,251.356 217.933,262.109 228.718 C 272.567 239.205,272.109 238.512,270.318 241.128 C 251.556 268.527,224.151 282.569,194.414 280.021 C 158.382 276.933,130.218 252.277,121.645 216.315 C 109.521 165.456,154.581 114.768,207.600 119.624 M69.270 159.300 C 39.045 257.922,124.196 353.053,225.458 333.792 C 233.605 332.243,248.800 327.709,248.800 326.827 C 248.800 325.694,244.518 325.097,242.175 325.904 C 214.533 335.424,181.266 334.929,153.600 324.586 C 88.394 300.209,52.553 229.805,71.602 163.513 L 72.833 159.226 71.967 157.213 C 70.805 154.512,70.717 154.580,69.270 159.300 M300.500 162.300 C 308.108 179.632,308.894 207.400,302.423 230.263 C 300.119 238.399,293.975 253.800,293.146 253.510 C 292.229 253.190,252.999 214.598,245.505 206.644 C 240.309 201.130,239.237 199.797,239.670 199.390 C 239.962 199.116,242.900 197.224,246.200 195.184 C 250.862 192.303,282.061 171.557,296.800 161.537 C 299.574 159.652,299.314 159.598,300.500 162.300 M202.581 196.166 C 206.326 197.731,205.091 203.600,201.017 203.600 C 196.885 203.600,195.389 198.536,198.890 196.402 C 200.451 195.450,200.812 195.427,202.581 196.166 " stroke="none" fill="#f6f5f5" fill-rule="evenodd"></path><path id="path1" d="M190.400 93.065 C 110.249 100.905,69.021 185.621,112.841 252.435 C 151.810 311.851,241.289 314.554,283.777 257.600 C 285.500 255.290,287.060 253.303,287.244 253.184 C 287.803 252.820,275.834 241.135,275.166 241.392 C 274.842 241.516,273.967 242.649,273.222 243.909 C 266.036 256.068,252.656 268.105,238.400 275.234 C 199.064 294.907,152.999 282.116,128.324 244.669 C 126.850 242.431,125.346 240.297,124.981 239.928 C 124.607 239.548,124.450 239.042,124.621 238.766 C 124.798 238.480,124.757 238.379,124.525 238.523 C 123.638 239.071,118.492 228.502,115.884 220.775 C 96.243 162.579,148.243 100.421,210.402 107.793 C 238.800 111.160,266.584 130.733,279.403 156.400 C 279.787 157.170,280.162 157.868,280.235 157.951 C 280.381 158.117,292.180 150.650,293.295 149.686 C 293.950 149.120,293.917 148.942,292.735 146.642 C 292.045 145.299,291.258 143.765,290.986 143.234 C 287.725 136.861,275.671 123.425,266.792 116.265 C 245.498 99.094,217.060 90.457,190.400 93.065 M193.200 119.646 C 156.613 122.878,127.148 150.871,123.580 185.789 C 118.176 238.668,164.661 280.750,216.988 270.350 C 234.196 266.930,252.395 254.741,264.560 238.488 C 266.078 236.459,267.517 234.800,267.756 234.800 C 267.996 234.800,264.686 231.290,260.400 227.000 C 251.516 218.108,252.210 218.493,250.434 221.461 C 242.042 235.492,227.356 247.368,213.431 251.385 C 192.455 257.435,168.475 248.010,155.968 228.800 C 154.894 227.150,153.654 225.383,153.214 224.873 C 148.083 218.936,144.200 205.982,144.200 194.800 C 144.200 152.308,190.913 124.241,226.776 145.186 C 237.330 151.350,248.436 163.014,253.766 173.534 C 254.476 174.935,255.036 175.595,255.397 175.456 C 255.811 175.298,271.252 165.141,271.928 164.583 C 271.998 164.525,271.676 163.734,271.213 162.825 C 270.749 161.916,270.494 160.971,270.647 160.724 C 270.802 160.474,270.745 160.387,270.518 160.527 C 270.294 160.665,269.776 160.018,269.365 159.089 C 267.184 154.157,259.072 144.627,252.034 138.730 C 234.894 124.368,214.527 117.762,193.200 119.646 " stroke="none" fill="#fa0404" fill-rule="evenodd"></path><path id="path2" d="M181.800 1.211 C 180.920 1.400,179.052 1.564,177.650 1.577 C 174.722 1.603,167.736 2.651,166.705 3.218 C 166.323 3.428,165.243 3.608,164.305 3.617 C 163.367 3.627,161.790 3.810,160.800 4.025 C 159.810 4.239,157.650 4.672,156.000 4.987 C 154.350 5.302,151.937 5.929,150.637 6.380 C 149.338 6.831,147.861 7.200,147.356 7.200 C 146.851 7.200,146.024 7.367,145.519 7.572 C 145.013 7.777,141.630 8.865,138.000 9.990 C 134.370 11.115,131.076 12.214,130.680 12.433 C 130.284 12.652,128.664 13.293,127.080 13.857 C 125.496 14.421,123.094 15.404,121.743 16.042 C 120.391 16.679,119.153 17.200,118.991 17.200 C 118.684 17.200,111.591 20.520,110.200 21.315 C 109.760 21.566,108.050 22.462,106.400 23.306 C 104.750 24.150,102.100 25.597,100.512 26.520 C 98.924 27.444,96.476 28.868,95.073 29.685 C 93.670 30.502,92.293 31.447,92.012 31.785 C 91.732 32.123,91.337 32.400,91.134 32.400 C 90.541 32.400,79.013 40.411,78.200 41.388 C 77.980 41.652,77.035 42.351,76.100 42.939 C 75.165 43.528,74.400 44.149,74.400 44.319 C 74.400 44.489,73.905 44.924,73.300 45.286 C 72.695 45.648,71.533 46.542,70.718 47.272 C 69.904 48.002,68.386 49.320,67.345 50.200 C 62.652 54.169,47.413 69.858,45.604 72.583 C 45.272 73.083,44.597 73.922,44.105 74.446 C 43.613 74.971,42.623 76.189,41.905 77.154 C 41.187 78.119,39.838 79.919,38.906 81.154 C 37.974 82.389,36.589 84.300,35.828 85.400 C 35.066 86.500,33.714 88.453,32.822 89.740 C 31.930 91.028,31.200 92.160,31.200 92.257 C 31.200 92.354,31.016 92.651,30.792 92.917 C 30.143 93.684,27.296 98.249,26.178 100.314 C 25.616 101.351,24.458 103.460,23.604 105.000 C 21.892 108.087,20.924 110.026,18.412 115.400 C 17.487 117.380,16.308 119.900,15.793 121.000 C 13.314 126.290,9.200 137.881,6.848 146.200 C 5.069 152.497,4.572 154.587,3.994 158.200 C 3.713 159.960,3.302 161.754,3.081 162.187 C 2.860 162.620,2.551 164.060,2.396 165.387 C 2.240 166.714,1.825 170.140,1.474 173.000 C 1.122 175.860,0.645 180.000,0.413 182.200 C -0.129 187.351,-0.130 212.529,0.411 218.000 C 1.460 228.603,2.527 236.513,3.181 238.529 C 3.408 239.228,3.966 241.771,4.421 244.181 C 5.252 248.580,9.015 262.252,9.601 263.000 C 9.773 263.220,10.230 264.570,10.617 266.000 C 11.003 267.430,11.726 269.500,12.222 270.600 C 12.719 271.700,13.602 273.944,14.185 275.586 C 14.768 277.228,15.385 278.758,15.555 278.986 C 15.726 279.214,16.104 280.030,16.395 280.800 C 16.686 281.570,18.087 284.540,19.509 287.400 C 21.915 292.238,22.794 293.923,26.346 300.506 C 27.086 301.878,28.031 303.372,28.446 303.826 C 28.861 304.280,29.200 304.804,29.200 304.990 C 29.200 305.176,30.100 306.655,31.200 308.276 C 32.300 309.897,33.200 311.366,33.200 311.540 C 33.200 311.714,33.740 312.461,34.400 313.200 C 35.060 313.939,35.600 314.668,35.600 314.819 C 35.600 315.083,39.458 320.327,41.178 322.400 C 41.634 322.950,42.411 323.943,42.904 324.608 C 43.397 325.272,44.160 326.240,44.600 326.759 C 45.040 327.279,46.635 329.166,48.144 330.952 C 53.226 336.969,64.006 347.633,70.600 353.167 C 71.700 354.090,72.960 355.163,73.400 355.551 C 73.840 355.939,74.830 356.694,75.600 357.228 C 76.370 357.763,77.090 358.309,77.200 358.441 C 77.561 358.876,84.170 363.811,85.469 364.615 C 86.167 365.047,88.417 366.511,90.469 367.869 C 96.157 371.633,97.627 372.538,99.800 373.612 C 100.900 374.155,101.894 374.724,102.009 374.876 C 102.647 375.720,124.069 386.000,125.190 386.000 C 125.376 386.000,127.001 386.630,128.800 387.400 C 130.599 388.170,132.327 388.800,132.641 388.800 C 132.954 388.800,133.523 388.956,133.905 389.146 C 136.436 390.409,148.835 394.075,154.000 395.089 C 157.177 395.712,158.573 396.020,161.800 396.807 C 162.900 397.075,164.970 397.446,166.400 397.632 C 167.830 397.818,171.070 398.273,173.600 398.645 C 183.058 400.033,228.902 399.453,229.841 397.933 C 229.955 397.750,230.908 397.600,231.960 397.600 C 233.012 397.600,234.756 397.332,235.836 397.004 C 236.916 396.677,238.284 396.407,238.876 396.404 C 239.468 396.402,240.064 396.220,240.200 396.000 C 240.336 395.780,241.112 395.597,241.924 395.594 C 243.288 395.588,246.065 394.953,251.600 393.380 C 252.810 393.036,255.060 392.421,256.600 392.013 C 258.140 391.605,260.270 390.895,261.333 390.436 C 262.396 389.976,263.601 389.600,264.010 389.600 C 264.418 389.600,264.864 389.420,265.000 389.200 C 265.136 388.980,265.608 388.800,266.048 388.800 C 266.489 388.800,267.783 388.381,268.925 387.869 C 270.066 387.357,271.720 386.701,272.600 386.410 C 276.733 385.046,296.150 375.770,296.791 374.854 C 296.906 374.690,297.900 374.141,299.000 373.635 C 300.100 373.129,301.826 372.126,302.834 371.405 C 303.843 370.685,305.027 369.982,305.464 369.843 C 305.901 369.704,306.627 369.248,307.078 368.828 C 307.528 368.408,308.910 367.493,310.148 366.794 C 311.387 366.095,312.400 365.390,312.400 365.226 C 312.400 365.062,312.805 364.743,313.300 364.517 C 314.088 364.158,317.852 361.412,323.000 357.441 C 336.364 347.134,350.892 331.955,361.515 317.200 C 362.862 315.330,364.295 313.350,364.699 312.800 C 365.104 312.250,366.669 309.820,368.177 307.400 C 369.684 304.980,371.206 302.552,371.559 302.004 C 375.176 296.383,385.966 273.938,386.013 271.938 C 386.019 271.642,386.468 270.500,387.009 269.400 C 387.550 268.300,387.994 267.173,387.996 266.895 C 387.998 266.617,388.162 266.077,388.361 265.695 C 388.560 265.313,388.940 264.190,389.207 263.200 C 389.473 262.210,389.841 261.040,390.025 260.600 C 390.739 258.887,392.800 251.952,392.800 251.261 C 392.800 250.860,393.180 249.377,393.645 247.966 C 394.110 246.555,394.641 244.500,394.825 243.400 C 395.008 242.300,395.434 239.870,395.771 238.000 C 396.108 236.130,396.388 233.953,396.392 233.161 C 396.396 232.370,396.651 231.200,396.958 230.561 C 399.289 225.714,399.285 173.844,396.954 170.114 C 396.649 169.627,396.396 168.547,396.392 167.714 C 396.388 166.881,396.108 164.670,395.771 162.800 C 395.434 160.930,395.007 158.500,394.822 157.400 C 394.637 156.300,394.121 154.230,393.675 152.800 C 393.228 151.370,392.746 149.498,392.602 148.639 C 392.458 147.780,391.745 145.260,391.017 143.039 C 390.288 140.818,389.223 137.490,388.649 135.644 C 388.075 133.799,387.457 132.089,387.275 131.844 C 387.093 131.600,386.698 130.590,386.397 129.600 C 385.598 126.969,380.222 114.520,378.623 111.600 C 378.322 111.050,377.285 109.070,376.318 107.200 C 374.283 103.263,372.244 99.618,371.042 97.769 C 370.579 97.057,369.570 95.432,368.800 94.158 C 367.141 91.412,362.374 84.286,362.005 84.000 C 361.863 83.890,361.170 82.990,360.466 82.000 C 357.434 77.742,349.464 67.954,348.424 67.212 C 347.971 66.888,347.600 66.462,347.600 66.264 C 347.600 66.066,344.479 62.821,340.664 59.052 C 333.848 52.319,332.216 50.795,328.831 48.000 C 327.898 47.230,326.745 46.264,326.268 45.853 C 325.235 44.965,319.652 40.617,317.725 39.200 C 314.620 36.918,305.640 30.928,301.200 28.179 C 299.733 27.270,295.862 25.144,291.800 23.017 C 290.480 22.325,289.040 21.555,288.600 21.305 C 287.193 20.506,280.090 17.200,279.779 17.200 C 279.614 17.200,278.562 16.754,277.440 16.210 C 273.420 14.259,257.428 8.673,252.800 7.604 C 251.590 7.325,249.438 6.732,248.018 6.288 C 246.598 5.844,244.168 5.241,242.618 4.948 C 241.068 4.655,238.990 4.240,238.000 4.025 C 237.010 3.810,235.381 3.627,234.380 3.617 C 233.379 3.608,232.389 3.437,232.180 3.237 C 230.490 1.625,187.871 -0.089,181.800 1.211 M217.191 34.998 C 322.116 46.952,389.018 149.328,357.976 250.430 C 355.288 259.185,350.009 271.900,349.256 271.435 C 347.847 270.564,347.936 268.181,349.513 264.593 C 367.118 224.545,367.186 176.192,349.694 135.600 C 312.463 49.202,210.220 11.785,126.308 53.849 C 122.561 55.728,121.919 55.859,120.455 55.047 C 119.326 54.422,121.064 53.350,129.657 49.373 C 148.901 40.468,166.858 36.007,190.600 34.233 C 194.831 33.917,212.050 34.412,217.191 34.998 M217.400 64.544 C 296.146 76.609,347.094 146.481,333.748 224.110 C 332.584 230.882,332.311 231.299,331.053 228.234 C 330.269 226.324,330.269 226.314,331.136 220.661 C 332.916 209.050,333.287 193.536,332.003 184.400 C 320.613 103.340,247.477 52.220,168.705 70.258 L 164.010 71.333 161.805 70.584 C 160.592 70.172,159.600 69.715,159.600 69.569 C 159.600 68.563,178.849 64.690,188.000 63.856 C 192.377 63.456,213.533 63.952,217.400 64.544 M213.884 89.418 C 305.283 101.368,343.349 213.082,278.215 278.215 C 219.724 336.707,120.502 313.220,94.148 234.645 C 68.300 157.579,133.196 78.868,213.884 89.418 M190.800 107.649 C 128.818 114.770,92.540 183.522,122.832 236.456 C 125.463 241.053,125.619 240.942,123.333 236.100 C 103.197 193.432,120.702 145.407,164.200 123.982 C 205.130 103.821,253.898 120.802,276.608 163.123 C 279.463 168.443,278.478 168.303,284.679 164.268 C 287.496 162.435,291.653 159.735,293.919 158.268 L 298.037 155.599 296.214 152.100 C 294.263 148.354,291.624 144.002,291.609 144.506 C 291.604 144.674,292.141 145.771,292.802 146.942 C 293.939 148.956,293.966 149.105,293.302 149.679 C 292.183 150.648,280.382 158.117,280.235 157.951 C 280.162 157.868,279.787 157.170,279.403 156.400 C 263.297 124.151,225.962 103.608,190.800 107.649 M56.164 119.331 C 56.669 120.516,56.618 120.759,55.392 123.000 C 29.294 170.700,30.155 232.867,57.574 280.600 C 102.885 359.482,201.539 386.268,281.245 341.331 C 283.783 339.900,283.956 339.860,285.545 340.336 C 287.870 341.033,287.709 341.275,283.100 344.013 C 243.310 367.653,191.509 373.046,147.000 358.185 C 50.581 325.990,5.357 216.047,51.126 125.106 C 54.991 117.426,55.234 117.148,56.164 119.331 M193.079 138.599 C 154.051 144.961,132.241 187.060,150.597 220.600 C 153.359 225.648,153.756 225.784,151.612 220.948 C 132.035 176.786,180.400 129.923,222.901 151.874 C 234.404 157.815,245.826 169.673,252.072 182.159 C 252.963 183.942,253.745 185.458,253.809 185.529 C 253.930 185.663,270.758 174.535,274.090 172.117 L 275.981 170.746 274.144 167.073 C 272.341 163.467,269.630 158.800,269.338 158.800 C 269.257 158.800,269.834 160.078,270.621 161.641 C 271.408 163.204,271.995 164.529,271.926 164.585 C 271.240 165.149,255.810 175.298,255.397 175.456 C 255.036 175.595,254.476 174.935,253.766 173.534 C 241.780 149.880,215.760 134.902,193.079 138.599 M106.298 146.916 C 88.370 179.199,87.207 214.204,102.987 246.600 C 138.651 319.815,239.731 328.604,287.752 262.665 C 291.760 257.162,291.667 257.551,289.549 255.080 C 287.453 252.634,287.496 252.616,283.777 257.600 C 267.811 279.001,241.895 294.329,215.800 297.806 C 130.776 309.133,68.441 223.723,106.428 147.945 C 109.415 141.986,109.345 141.430,106.298 146.916 M71.967 157.213 L 72.833 159.226 71.602 163.513 C 52.553 229.805,88.394 300.209,153.600 324.586 C 181.266 334.929,214.533 335.424,242.175 325.904 C 244.518 325.097,248.800 325.694,248.800 326.827 C 248.800 327.709,233.605 332.243,225.458 333.792 C 124.196 353.053,39.045 257.922,69.270 159.300 C 70.717 154.580,70.805 154.512,71.967 157.213 M131.921 157.900 C 121.188 175.629,117.264 197.936,121.645 216.315 C 130.218 252.277,158.382 276.933,194.414 280.021 C 224.151 282.569,251.556 268.527,270.318 241.128 C 271.947 238.750,271.937 238.644,269.906 236.548 C 267.679 234.250,267.751 234.224,264.560 238.488 C 240.550 270.565,200.969 280.896,166.741 264.019 C 127.166 244.506,111.455 196.182,132.305 158.100 C 134.021 154.964,133.776 154.836,131.921 157.900 M296.800 161.537 C 282.061 171.557,250.862 192.303,246.200 195.184 C 242.900 197.224,239.962 199.116,239.670 199.390 C 239.237 199.797,240.309 201.130,245.505 206.644 C 252.999 214.598,292.229 253.190,293.146 253.510 C 293.975 253.800,300.119 238.399,302.423 230.263 C 308.894 207.400,308.108 179.632,300.500 162.300 C 299.314 159.598,299.574 159.652,296.800 161.537 M198.890 196.402 C 195.389 198.536,196.885 203.600,201.017 203.600 C 205.091 203.600,206.326 197.731,202.581 196.166 C 200.812 195.427,200.451 195.450,198.890 196.402 " stroke="none" fill="#040404" fill-rule="evenodd"></path></g></svg>